<svg width="88" height="74" viewBox="0 0 88 74" fill="none" xmlns="http://www.w3.org/2000/svg">
<g clip-path="url(#clip0_980_45484)">
<path d="M53.2284 51.427H77.2435C78.1546 51.427 78.9569 50.8279 79.2051 49.9628L83.5499 34.8794C83.5499 34.8794 83.5499 34.8726 83.5499 34.8693L87.9184 19.6983C88.0952 19.0891 87.9694 18.4327 87.5852 17.9278C87.2011 17.4229 86.5959 17.1233 85.9568 17.1233H22.0331L17.5218 1.46425C17.2736 0.595797 16.4713 0 15.5602 0H2.03979C0.914506 0 0 0.905477 0 2.01965C0 3.13382 0.914506 4.0393 2.03979 4.0393H14.0236L29.2744 56.9811C25.6878 58.0784 23.0768 61.3906 23.0768 65.2953C23.0768 70.092 27.0204 73.9966 31.8649 73.9966C36.7094 73.9966 40.653 70.092 40.653 65.2953C40.653 63.582 40.1465 61.9831 39.2796 60.6333H64.7498C63.8829 61.9831 63.3763 63.582 63.3763 65.2953C63.3763 70.092 67.3199 73.9966 72.1644 73.9966C77.0089 73.9966 80.9525 70.092 80.9525 65.2953C80.9525 60.4986 77.0089 56.594 72.1644 56.594H33.4084L31.9193 51.427H53.2318H53.2284ZM40.6802 36.2931H51.1886V47.3877H41.5505L40.6802 36.2931ZM37.4574 47.3877H30.7533L27.5576 36.2931H36.5905L37.4608 47.3877H37.4574ZM55.2682 36.2931H65.7765L64.9062 47.3877H55.2682V36.2931ZM55.2682 32.2538V21.1592H66.963L66.0926 32.2538H55.2682ZM75.7035 47.3877H68.9993L69.8697 36.2931H78.9025L75.7069 47.3877H75.7035ZM80.0618 32.2538H70.1824L71.0527 21.1592H83.2575L80.0618 32.2538ZM51.1886 32.2538H40.3641L39.4938 21.1592H51.1886V32.2538ZM35.4006 21.1592L36.2709 32.2538H26.3915L23.1958 21.1592H35.4006ZM31.8615 69.9573C29.2642 69.9573 27.153 67.867 27.153 65.2953C27.153 62.7236 29.2642 60.6333 31.8615 60.6333C34.4589 60.6333 36.5701 62.7236 36.5701 65.2953C36.5701 67.867 34.4589 69.9573 31.8615 69.9573ZM76.8695 65.2953C76.8695 67.867 74.7584 69.9573 72.161 69.9573C69.5637 69.9573 67.4525 67.867 67.4525 65.2953C67.4525 62.7236 69.5637 60.6333 72.161 60.6333C74.7584 60.6333 76.8695 62.7236 76.8695 65.2953Z" fill="#2D2D2D"/>
</g>
<defs>
<clipPath id="clip0_980_45484">
<rect width="88" height="74" fill="white"/>
</clipPath>
</defs>
</svg>
